<svg width="58" height="58" viewBox="0 0 58 58" fill="none" xmlns="http://www.w3.org/2000/svg">
<path d="M33.0446 12.8355L37.0822 8.79796L57.2842 29L37.0822 49.202L33.0446 45.1645L49.2091 29L37.0822 16.8731L20.9177 33.0376L16.8802 29L33.0446 12.8355ZM24.9624 4.75331L29 8.79089L33.0375 4.75331L29 0.715729L24.9624 4.75331ZM33.0375 37.0822L41.1198 29L37.0822 24.9624L20.9177 41.1269L8.79086 29L24.9553 12.8355L20.9177 8.79796L0.715698 29L20.9177 49.202L33.0375 37.0822ZM29 57.2843L33.0375 53.2467L29 49.2091L24.9624 53.2467L29 57.2843Z" fill="white"/>
</svg>
