<?xml version="1.0" encoding="utf-8"?>
<!-- Generator: Adobe Illustrator 26.3.1, SVG Export Plug-In . SVG Version: 6.00 Build 0)  -->
<svg version="1.2" baseProfile="tiny" id="Layer_1" xmlns="http://www.w3.org/2000/svg" xmlns:xlink="http://www.w3.org/1999/xlink"
	 x="0px" y="0px" viewBox="0 0 40 40" overflow="visible" xml:space="preserve">
<path fill="#FFFFFF" d="M30.8,10.3H40c0,9.1,0,20.7,0,29.7h-9.2l0,0h-1l0,0h-9.2l0,0h-1l0,0h-9.2v-9.2c5.6,0,14.9,0,20.5,0
	c0-1.4,0-9.9,0-11.3c-5.6,0-14.9,0-20.5,0v-9.2C15.9,10.3,25.2,10.3,30.8,10.3z M0,40L0,40h9.2v-9.2H0V40z M19.5,29.7
	c0.2,0,9.7,0,10.3,0v-9.2c-5.6,0-14.9,0-20.5,0c0-1.4,0-9.9,0-11.3c5.6,0,14.9,0,20.5,0V0C20.7,0,9.1,0,0,0c0,9.1,0,20.7,0,29.7
	C5.1,29.7,14.4,29.7,19.5,29.7z M30.8,0v9.2H40V0H30.8z"/>
</svg>
