<?xml version="1.0" encoding="utf-8"?><svg viewBox="0 0 100 100" xmlns="http://www.w3.org/2000/svg" xmlns:xlink="http://www.w3.org/1999/xlink"><style>:root>svg{display:none}:root>svg:target{display:block}</style><svg viewBox="0 0 100 100" overflow="visible" id="arrow-left" xmlns="http://www.w3.org/2000/svg"><path d="M100 50c0 27.6-22.4 50-50 50S0 77.6 0 50 22.4 0 50 0s50 22.4 50 50zm-12.9-7.7h-37V30.1c0-2.2-2.4-3.6-4.3-2.5L11.4 47.5c-1.9 1.1-1.9 3.9 0 5l34.4 19.9c1.9 1.1 4.3-.3 4.3-2.5V58.3H87c1.6 0 2.9-1.3 2.9-2.9V45.2c.1-1.6-1.2-2.9-2.8-2.9z"/></svg><svg viewBox="0 0 100 100" overflow="visible" id="arrow-right" xmlns="http://www.w3.org/2000/svg"><path d="M50 0c27.6 0 50 22.4 50 50s-22.4 50-50 50S0 77.6 0 50 22.4 0 50 0zM10 45.2v10.2c0 1.6 1.3 2.9 2.9 2.9h36.9v11.5c0 2.2 2.4 3.6 4.3 2.5l34.4-19.9c1.9-1.1 1.9-3.9 0-5L54.2 27.7c-1.9-1.1-4.3.3-4.3 2.5v12.1h-37c-1.6 0-2.9 1.3-2.9 2.9z"/></svg></svg>